<svg id="Layer_1" data-name="Layer 1" xmlns="http://www.w3.org/2000/svg" xmlns:xlink="http://www.w3.org/1999/xlink" viewBox="0 0 1003.68 849.68"><defs><style>.cls-1,.cls-2,.cls-3,.cls-4,.cls-5,.cls-6{stroke:#fff;stroke-miterlimit:10;stroke-width:7px;}.cls-1{fill:url(#linear-gradient);}.cls-2{fill:url(#linear-gradient-2);}.cls-3{fill:url(#linear-gradient-3);}.cls-4{fill:url(#linear-gradient-4);}.cls-5{fill:url(#linear-gradient-5);}.cls-6{fill:url(#linear-gradient-6);}</style><linearGradient id="linear-gradient" x1="185.58" y1="280.01" x2="638.3" y2="280.01" gradientUnits="userSpaceOnUse"><stop offset="0" stop-color="#ff8a44"/><stop offset="1" stop-color="#ea5753"/></linearGradient><linearGradient id="linear-gradient-2" x1="228.57" y1="280.01" x2="595.31" y2="280.01" xlink:href="#linear-gradient"/><linearGradient id="linear-gradient-3" x1="271.55" y1="279.74" x2="552.33" y2="279.74" xlink:href="#linear-gradient"/><linearGradient id="linear-gradient-4" x1="368.71" y1="280.01" x2="821.43" y2="280.01" xlink:href="#linear-gradient"/><linearGradient id="linear-gradient-5" x1="411.7" y1="280.01" x2="778.44" y2="280.01" xlink:href="#linear-gradient"/><linearGradient id="linear-gradient-6" x1="454.68" y1="280.28" x2="735.45" y2="280.28" xlink:href="#linear-gradient"/></defs><path class="cls-1" d="M411.94,53.65C287.12,53.65,185.58,155.19,185.58,280S287.12,506.37,411.94,506.37a225.56,225.56,0,0,0,72-11.74,238.63,238.63,0,0,1-29.63-18.56,200.76,200.76,0,0,1-42.39,4.51c-110.59,0-200.57-90-200.57-200.57s90-200.57,200.57-200.57,200.57,90,200.57,200.57a199.32,199.32,0,0,1-30,105.4,100.67,100.67,0,0,0,11.93.7,101.68,101.68,0,0,0,18.27-1.65A224.92,224.92,0,0,0,638.3,280C638.3,155.19,536.76,53.65,411.94,53.65Z"/><path class="cls-2" d="M411.94,96.64C310.83,96.64,228.57,178.9,228.57,280s82.26,183.37,183.37,183.37a182.68,182.68,0,0,0,24.68-1.66,239.25,239.25,0,0,1-23.51-24.14h-1.17c-86.89,0-157.58-70.69-157.58-157.58s70.69-157.58,157.58-157.58S569.52,193.12,569.52,280a156.64,156.64,0,0,1-28.77,90.67,99.79,99.79,0,0,0,23.78,10.92A182.31,182.31,0,0,0,595.31,280C595.31,178.9,513.05,96.64,411.94,96.64Z"/><path class="cls-3" d="M541.28,225.36A140.44,140.44,0,1,0,399.5,419.85a237.9,237.9,0,0,1-17.35-29.16,114.6,114.6,0,1,1,127.38-50.6,102.52,102.52,0,0,0,13.21,16.2c1.41,1.41,2.86,2.78,4.33,4.08a140.54,140.54,0,0,0,14.21-135Z"/><path class="cls-4" d="M595.06,506.37c124.82,0,226.37-101.54,226.37-226.36S719.88,53.65,595.06,53.65a225.55,225.55,0,0,0-72,11.74A238.63,238.63,0,0,1,552.68,84a200.74,200.74,0,0,1,42.38-4.51c110.6,0,200.58,90,200.58,200.57s-90,200.57-200.58,200.57S394.5,390.61,394.5,280a199.32,199.32,0,0,1,30-105.4,102,102,0,0,0-30.2.95A224.92,224.92,0,0,0,368.71,280C368.71,404.83,470.25,506.37,595.06,506.37Z"/><path class="cls-5" d="M595.06,463.38c101.12,0,183.38-82.26,183.38-183.37S696.18,96.64,595.06,96.64a182.65,182.65,0,0,0-24.67,1.66,239.25,239.25,0,0,1,23.51,24.14h1.16c86.9,0,157.59,70.69,157.59,157.58S682,437.59,595.06,437.59,437.49,366.9,437.49,280a156.64,156.64,0,0,1,28.77-90.67,99.79,99.79,0,0,0-23.78-10.92A182.31,182.31,0,0,0,411.7,280C411.7,381.12,494,463.38,595.06,463.38Z"/><path class="cls-6" d="M465.73,334.66A140.44,140.44,0,1,0,607.51,140.17a237.9,237.9,0,0,1,17.35,29.16,114.6,114.6,0,1,1-127.38,50.6,102.52,102.52,0,0,0-13.21-16.2c-1.41-1.41-2.86-2.78-4.33-4.08a140.54,140.54,0,0,0-14.21,135Z"/><path d="M229.77,775l3,2.54c-17,22.46-35.81,30.09-65.7,30.09-69.51,0-107.65-54.46-107.65-119.31,0-62.09,37.3-125.25,107.65-125.25,22.68,0,41.54,12.08,51.93,17,5.08,2.33,10.17-6.15,10.17-6.15h1.27V604h-3c-13.14-22.88-33.27-36.87-60.4-36.87-55.73,0-73.75,76.93-73.75,119.74,0,58.49,25.22,116.77,81.17,116.77C197.56,803.64,218.12,792.83,229.77,775Z"/><path d="M267.92,765.28v-2.12c4.45,0,12.3-3,16.32-13.35l50.44-132.88h3.18v.21l50.23,132.67c4,10.38,11.86,13.35,16.31,13.35v2.12H345.7v-2.12c4.45,0,13.56-3,9.54-13.35L342.1,715.26H300.56l-13.14,34.55c-4,10.38,5.09,13.35,9.54,13.35v2.12Zm33.7-53H341l-19.71-51.92Z"/><path d="M419.24,647c0-27.56,31.79-36.46,53.83-36.46,10.17,0,23.95,4,34.33,10.18v17h-1.48c-5.09-10-16.75-24.16-33.28-24.16-17.16,0-25.43,10-25.43,21.83,0,40.27,72.91,51.5,72.91,98.76,0,21.19-22.68,37.51-55.95,37.51-25,0-37.3-9.75-44.93-16.53V737.94h1.48c3.61,6.36,15,30.73,43.45,30.73,13.35,0,26.7-5.93,26.7-20.56C490.87,707.42,419.24,693.86,419.24,647Z"/><path d="M549.79,763.16c4.45,0,12.93-2.54,12.93-13.35V632.4c0-10.81-8.48-13.35-12.93-13.35v-2.12H659.57v27.13h-2.12c0-4.45-2.55-24.16-23.1-24.16h-40.9v80.74h24.16c20.55,0,21.61-10.59,23.94-15h2.12v33.06h-2.12c-2.33-4.45-3.39-15-23.94-15H593.45v58.7h40.9c20.55,0,23.1-19.71,23.1-24.16h2.12v27.13H549.79Z"/><path d="M686.06,619.05v-2.12h56.58v2.12c-4.45,0-12.92,2.54-12.92,13.35v75.24c0,50.43,18.22,59.76,36.87,59.76,23.1,0,40.27-19.92,40.27-66.12V632.4c0-10.81-8.48-13.35-12.93-13.35v-2.12h28.82v2.12c-4.45,0-12.93,2.54-12.93,13.35v68.88c0,59.55-25.64,70.36-52.34,70.36-28.61,0-58.49-14.2-58.49-73.12V632.4C699,621.59,690.51,619.05,686.06,619.05Z"/><path d="M847.12,647c0-27.56,31.79-36.46,53.83-36.46,10.17,0,23.95,4,34.33,10.18v17H933.8c-5.09-10-16.74-24.16-33.27-24.16-17.17,0-25.43,10-25.43,21.83,0,40.27,72.9,51.5,72.9,98.76,0,21.19-22.68,37.51-56,37.51-25,0-37.3-9.75-44.93-16.53V737.94h1.49c3.6,6.36,15,30.73,43.44,30.73,13.35,0,26.7-5.93,26.7-20.56C918.75,707.42,847.12,693.86,847.12,647Z"/></svg>